<?xml version="1.0" encoding="UTF-8" standalone="no"?>
<svg
   xmlns:dc="http://purl.org/dc/elements/1.1/"
   xmlns:cc="http://creativecommons.org/ns#"
   xmlns:rdf="http://www.w3.org/1999/02/22-rdf-syntax-ns#"
   xmlns:svg="http://www.w3.org/2000/svg"
   xmlns="http://www.w3.org/2000/svg"
   xmlns:sodipodi="http://sodipodi.sourceforge.net/DTD/sodipodi-0.dtd"
   xmlns:inkscape="http://www.inkscape.org/namespaces/inkscape"
   id="Layer_1"
   data-name="Layer 1"
   viewBox="0 0 24 24"
   width="512"
   height="512"
   version="1.1"
   sodipodi:docname="br-paper-plane-top.svg"
   inkscape:version="1.0.2-2 (e86c870879, 2021-01-15)">
  <metadata
     id="metadata9">
    <rdf:RDF>
      <cc:Work
         rdf:about="">
        <dc:format>image/svg+xml</dc:format>
        <dc:type
           rdf:resource="http://purl.org/dc/dcmitype/StillImage" />
      </cc:Work>
    </rdf:RDF>
  </metadata>
  <defs
     id="defs7" />
  <sodipodi:namedview
     pagecolor="#ffffff"
     bordercolor="#666666"
     borderopacity="1"
     objecttolerance="10"
     gridtolerance="10"
     guidetolerance="10"
     inkscape:pageopacity="0"
     inkscape:pageshadow="2"
     inkscape:window-width="1920"
     inkscape:window-height="1051"
     id="namedview5"
     showgrid="false"
     inkscape:zoom="1.71875"
     inkscape:cx="256"
     inkscape:cy="256"
     inkscape:window-x="-9"
     inkscape:window-y="-9"
     inkscape:window-maximized="1"
     inkscape:current-layer="Layer_1" />
  <path
     d="m21.697,8.382L4.566.324C3.396-.243,2.021-.049,1.056.82.087,1.692-.25,3.048.197,4.272c.024.064,4.106,7.734,4.106,7.734,0,0-4.005,7.664-4.028,7.727-.445,1.226-.105,2.58.865,3.45.601.538,1.358.816,2.121.816.47,0,.941-.105,1.379-.321l17.058-8.053c1.421-.667,2.303-2.056,2.302-3.625-.002-1.569-.885-2.956-2.303-3.619ZM3.001,3.184c-.004-.038.007-.084.062-.133.088-.079.157-.047.195-.027.007.004.015.007.021.011l15.874,7.466H6.9L3.001,3.184Zm.336,17.793c-.036.019-.106.053-.193-.026-.056-.05-.066-.098-.062-.136l3.827-7.314h12.266l-15.837,7.477Z"
     id="path2"
     style="fill:#e0ebe3;fill-opacity:1" />
</svg>
