<?xml version="1.0" encoding="UTF-8" standalone="no"?>
<svg
   xmlns:dc="http://purl.org/dc/elements/1.1/"
   xmlns:cc="http://creativecommons.org/ns#"
   xmlns:rdf="http://www.w3.org/1999/02/22-rdf-syntax-ns#"
   xmlns:svg="http://www.w3.org/2000/svg"
   xmlns="http://www.w3.org/2000/svg"
   xmlns:sodipodi="http://sodipodi.sourceforge.net/DTD/sodipodi-0.dtd"
   xmlns:inkscape="http://www.inkscape.org/namespaces/inkscape"
   version="1.1"
   id="Capa_1"
   x="0px"
   y="0px"
   viewBox="0 0 512 512"
   style="enable-background:new 0 0 512 512;"
   xml:space="preserve"
   width="512"
   height="512"
   sodipodi:docname="sr-cross-circle.svg"
   inkscape:version="1.0.2-2 (e86c870879, 2021-01-15)"><metadata
   id="metadata11"><rdf:RDF><cc:Work
       rdf:about=""><dc:format>image/svg+xml</dc:format><dc:type
         rdf:resource="http://purl.org/dc/dcmitype/StillImage" /></cc:Work></rdf:RDF></metadata><defs
   id="defs9" /><sodipodi:namedview
   pagecolor="#ffffff"
   bordercolor="#666666"
   borderopacity="1"
   objecttolerance="10"
   gridtolerance="10"
   guidetolerance="10"
   inkscape:pageopacity="0"
   inkscape:pageshadow="2"
   inkscape:window-width="1920"
   inkscape:window-height="1051"
   id="namedview7"
   showgrid="false"
   inkscape:zoom="1.2153398"
   inkscape:cx="-7.5801006"
   inkscape:cy="288.00724"
   inkscape:window-x="-9"
   inkscape:window-y="-9"
   inkscape:window-maximized="1"
   inkscape:current-layer="Capa_1"
   inkscape:document-rotation="0" />
<g
   id="g4"
   style="fill:#ff4f54;fill-opacity:1">
	<path
   d="M256,0C114.615,0,0,114.615,0,256s114.615,256,256,256s256-114.615,256-256C511.847,114.678,397.322,0.153,256,0z    M341.333,311.189c8.669,7.979,9.229,21.475,1.25,30.144c-7.979,8.669-21.475,9.229-30.144,1.25c-0.434-0.399-0.85-0.816-1.25-1.25   L256,286.165l-55.168,55.168c-8.475,8.185-21.98,7.95-30.165-0.525c-7.984-8.267-7.984-21.373,0-29.64L225.835,256l-55.168-55.168   c-8.185-8.475-7.95-21.98,0.525-30.165c8.267-7.984,21.373-7.984,29.64,0L256,225.835l55.189-55.168   c7.979-8.669,21.475-9.229,30.144-1.25c8.669,7.979,9.229,21.475,1.25,30.144c-0.399,0.434-0.816,0.85-1.25,1.25L286.165,256   L341.333,311.189z"
   id="path2"
   style="fill:#ff4f54;fill-opacity:1" />
</g>















</svg>
