<?xml version="1.0" encoding="UTF-8" standalone="no"?>
<svg
   xmlns:dc="http://purl.org/dc/elements/1.1/"
   xmlns:cc="http://creativecommons.org/ns#"
   xmlns:rdf="http://www.w3.org/1999/02/22-rdf-syntax-ns#"
   xmlns:svg="http://www.w3.org/2000/svg"
   xmlns="http://www.w3.org/2000/svg"
   xmlns:sodipodi="http://sodipodi.sourceforge.net/DTD/sodipodi-0.dtd"
   xmlns:inkscape="http://www.inkscape.org/namespaces/inkscape"
   version="1.1"
   id="Capa_1"
   x="0px"
   y="0px"
   viewBox="0 0 509.348 509.348"
   style="enable-background:new 0 0 509.348 509.348;"
   xml:space="preserve"
   width="512"
   height="512"
   sodipodi:docname="br-eye.svg"
   inkscape:version="1.0.2-2 (e86c870879, 2021-01-15)"><metadata
   id="metadata13"><rdf:RDF><cc:Work
       rdf:about=""><dc:format>image/svg+xml</dc:format><dc:type
         rdf:resource="http://purl.org/dc/dcmitype/StillImage" /></cc:Work></rdf:RDF></metadata><defs
   id="defs11" /><sodipodi:namedview
   pagecolor="#ffffff"
   bordercolor="#666666"
   borderopacity="1"
   objecttolerance="10"
   gridtolerance="10"
   guidetolerance="10"
   inkscape:pageopacity="0"
   inkscape:pageshadow="2"
   inkscape:window-width="1920"
   inkscape:window-height="1051"
   id="namedview9"
   showgrid="false"
   inkscape:zoom="1.71875"
   inkscape:cx="256"
   inkscape:cy="256"
   inkscape:window-x="-9"
   inkscape:window-y="-9"
   inkscape:window-maximized="1"
   inkscape:current-layer="Capa_1" />
<g
   id="g6"
   style="fill:#141f17;fill-opacity:1">
	<path
   d="M488.935,188.541C437.397,109.024,349.407,60.662,254.652,59.773C159.898,60.662,71.908,109.024,20.37,188.541   c-27.16,39.859-27.16,92.279,0,132.139c51.509,79.566,139.504,127.978,234.283,128.896   c94.754-0.889,182.744-49.251,234.283-128.768C516.153,280.919,516.153,228.429,488.935,188.541z M436.199,284.541   c-39.348,62.411-107.769,100.488-181.547,101.035c-73.777-0.546-142.198-38.624-181.547-101.035   c-12.267-18.022-12.267-41.712,0-59.733c39.348-62.411,107.769-100.488,181.547-101.035   c73.777,0.546,142.198,38.624,181.547,101.035C448.466,242.829,448.466,266.519,436.199,284.541z"
   id="path2"
   style="fill:#141f17;fill-opacity:1" />
	<circle
   cx="254.652"
   cy="254.674"
   r="85.333"
   id="circle4"
   style="fill:#141f17;fill-opacity:1" />
</g>















</svg>
